Coordinates
version=1
nRows=6
nColumns=46
inDegrees=yes

Units are S.I. units (second, meters, Newtons, ...)
Angles are in degrees.

endheader
time	pelvis_tilt	pelvis_list	pelvis_rotation	pelvis_tx	pelvis_ty	pelvis_tz	bb_angle	bb_tx	bb_ty	bb_tz	hip_flexion_r	hip_adduction_r	hip_rotation_r	knee_angle_r	knee_angle_r_beta	ankle_angle_r	subtalar_angle_r	mtp_angle_r	crank_angle_r	hip_flexion_l	hip_adduction_l	hip_rotation_l	knee_angle_l	knee_angle_l_beta	ankle_angle_l	subtalar_angle_l	mtp_angle_l	crank_angle_l	lumbar_extension	lumbar_bending	lumbar_rotation	arm_flex_r	arm_add_r	arm_rot_r	elbow_flex_r	pro_sup_r	wrist_flex_r	wrist_dev_r	arm_flex_l	arm_add_l	arm_rot_l	elbow_flex_l	pro_sup_l	wrist_flex_l	wrist_dev_l
      7.50500000	    -12.09596176	     -4.74987503	      0.66891891	      0.09919218	      1.14784475	     -0.23537171	      0.00000000	      0.50000000	      0.00000000	      0.25000000	     87.61377154	     -8.30904021	     -3.76499135	    103.18375702	      1.80089629	     23.55266639	     -1.94397535	      0.00000000	      0.00000000	     42.17276498	    -12.27455184	     -5.69706183	     49.62748042	      0.86616293	     11.27440902	      6.81063519	      0.00000000	      0.00000000	    -53.95807408	      3.24760838	      6.15352263	     89.57334458	    -15.68842091	     40.43419094	     33.66964441	     34.19947358	      0.00000000	      0.00000000	     89.58442344	     -3.63075993	     34.01432003	     26.55992573	     31.84738043	      0.00000000	      0.00000000
      7.51000000	    -12.02596180	     -4.80401370	      0.55399542	      0.09920375	      1.14703927	     -0.23537225	      0.00000000	      0.50000000	      0.00000000	      0.25000000	     87.76715812	     -8.27709793	     -3.80297109	    103.36122610	      1.80399371	     23.23647682	     -1.93964383	      0.00000000	      0.00000000	     42.14340140	    -12.39080971	     -5.70561610	     49.82774310	      0.86965818	     11.63458770	      6.96496223	      0.00000000	      0.00000000	    -53.89747626	      3.23853576	      6.24499846	     89.59390687	    -16.43413359	     43.15291791	     34.47550147	     33.06906803	      0.00000000	      0.00000000	     89.58251857	     -4.75373881	     37.95533540	     27.41377456	     30.53498639	      0.00000000	      0.00000000
      7.51500000	    -11.89274557	     -4.88887806	      0.51235117	      0.09917357	      1.14663084	     -0.23539229	      0.00000000	      0.50000000	      0.00000000	      0.25000000	     87.81311656	     -8.32333911	     -3.91205291	    103.50925301	      1.80657727	     22.79542148	     -1.92203640	      0.00000000	      0.00000000	     41.97041139	    -12.45131036	     -5.59574331	     49.82457236	      0.86960284	     12.04129951	      6.89661141	      0.00000000	      0.00000000	    -54.02564155	      3.30380120	      6.33272259	     89.58385078	    -15.81201430	     41.07587299	     33.69478807	     35.10019709	      0.00000000	      0.00000000	     89.58991830	     -3.95714392	     35.01617319	     26.50900970	     32.74277091	      0.00000000	      0.00000000
      7.52000000	    -11.85029283	     -5.00724868	      0.38942808	      0.09921331	      1.14598420	     -0.23516038	      0.00000000	      0.50000000	      0.00000000	      0.25000000	     87.94460642	     -8.23400050	     -3.99542183	    103.66626308	      1.80931761	     22.46757840	     -1.85335526	      0.00000000	      0.00000000	     41.92756315	    -12.64970468	     -5.59762647	     49.91240573	      0.87113582	     12.38921661	      6.98329359	      0.00000000	      0.00000000	    -53.98535118	      3.31455412	      6.40164299	     89.59211927	    -15.81603786	     41.78932801	     33.66025170	     34.87030425	      0.00000000	      0.00000000	     89.58574827	     -4.26521897	     35.67821863	     26.64539314	     32.44909708	      0.00000000	      0.00000000
      7.52500000	    -11.72446937	     -5.02993154	      0.28500601	      0.09922992	      1.14563831	     -0.23510757	      0.00000000	      0.50000000	      0.00000000	      0.25000000	     87.99263139	     -8.20898622	     -4.00785872	    103.83160465	      1.81220337	     22.17511762	     -1.78099729	      0.00000000	      0.00000000	     41.74107245	    -12.73716022	     -5.68325105	     49.89017236	      0.87074777	     12.65817762	      7.04129796	      0.00000000	      0.00000000	    -54.06962098	      3.28643642	      6.49915850	     89.58480147	    -15.53192633	     40.85400472	     33.28858298	     36.19073888	      0.00000000	      0.00000000	     89.58639839	     -3.90558749	     34.15225354	     26.19591712	     33.87043938	      0.00000000	      0.00000000
      7.53000000	    -11.66205452	     -5.09475691	      0.27291899	      0.09930757	      1.14510986	     -0.23473755	      0.00000000	      0.50000000	      0.00000000	      0.25000000	     88.08256640	     -8.21284336	     -4.06429414	    104.03504542	      1.81575408	     21.96143162	     -1.72450840	      0.00000000	      0.00000000	     41.69420411	    -12.86931540	     -5.75188690	     49.94386360	      0.87168486	     12.89358348	      7.12802612	      0.00000000	      0.00000000	    -54.05733757	      3.30336484	      6.47288469	     89.58751895	    -15.55461488	     41.33743946	     33.24718025	     36.03580791	      0.00000000	      0.00000000	     89.58628629	     -4.14723373	     34.68639626	     26.27621053	     33.68803700	      0.00000000	      0.00000000
